<?xml version="1.0" encoding="utf-8"?>
<svg viewBox="0 0 500 500" xmlns="http://www.w3.org/2000/svg">
  <path id="S" style="fill: rgb(0, 153, 153);" d="M 41.298 196.034 C 35.063 193.229 31.254 191.393 29.871 190.527 C 28.207 189.455 27.373 188.07 27.373 186.371 C 27.373 181.834 31.497 179.563 39.745 179.563 C 45.61 179.563 51.954 180.929 58.782 183.657 L 58.782 169.68 C 49.599 167.893 42.58 167 37.729 167 C 28.928 167 21.789 168.887 16.314 172.661 C 10.771 176.472 8 182.015 8 189.288 C 8 194.939 9.903 199.615 13.708 203.319 C 16.646 206.128 22.954 209.522 32.639 213.501 C 38.032 215.723 41.384 217.454 42.7 218.7 C 43.947 219.804 44.65 221.398 44.621 223.063 C 44.621 227.706 40.226 230.028 31.439 230.028 C 25.075 230.028 17.761 228.729 9.492 226.124 L 9.492 240.652 C 16.967 242.416 24.624 243.314 32.305 243.328 C 41.241 243.328 48.521 241.632 54.135 238.241 C 61.066 234.05 64.531 227.971 64.531 220 C 64.531 214.453 62.762 209.932 59.227 206.436 C 56.252 203.487 50.274 200.02 41.298 196.034 Z M 76.131 241.839 L 96.678 241.839 L 96.678 168.279 L 76.131 168.279 L 76.131 241.839 Z M 135.328 210.332 L 163.96 210.332 L 163.96 198.193 L 135.328 198.193 L 135.328 181.584 L 168.22 181.584 L 168.22 168.279 L 115.525 168.279 L 115.525 241.839 L 169.071 241.839 L 169.071 227.787 L 135.328 227.787 L 135.328 210.332 Z M 227.628 215.28 L 209.122 168.279 L 182.484 168.279 L 182.484 241.839 L 196.96 241.839 L 196.96 189.759 L 218.116 242.589 L 230.852 242.589 L 252.427 189.759 L 252.427 241.839 L 271.906 241.839 L 271.906 168.279 L 246.602 168.279 L 227.628 215.28 Z M 310.561 210.332 L 339.193 210.332 L 339.193 198.193 L 310.561 198.193 L 310.561 181.584 L 343.453 181.584 L 343.453 168.279 L 290.76 168.279 L 290.76 241.839 L 344.299 241.839 L 344.299 227.787 L 310.561 227.787 L 310.561 210.332 Z M 406.899 217.52 L 381.639 168.279 L 357.825 168.279 L 357.825 241.839 L 372.302 241.839 L 372.302 191.931 L 398.235 241.839 L 421.375 241.839 L 421.375 168.279 L 406.899 168.279 L 406.899 217.52 Z M 467.769 196.034 C 461.536 193.229 457.728 191.393 456.342 190.527 C 454.675 189.455 453.843 188.07 453.843 186.371 C 453.843 181.834 457.967 179.563 466.217 179.563 C 472.078 179.563 478.423 180.929 485.252 183.657 L 485.252 169.68 C 476.069 167.893 469.051 167 464.199 167 C 455.399 167 448.259 168.887 442.783 172.661 C 437.241 176.472 434.468 182.015 434.468 189.288 C 434.468 194.939 436.372 199.615 440.179 203.319 C 443.115 206.128 449.425 209.522 459.108 213.501 C 464.504 215.723 467.857 217.454 469.168 218.7 C 470.417 219.804 471.118 221.398 471.089 223.063 C 471.089 227.706 466.696 230.028 457.91 230.028 C 451.546 230.028 444.23 228.729 435.962 226.124 L 435.962 240.652 C 443.439 242.416 451.092 243.314 458.776 243.328 C 467.714 243.328 474.991 241.632 480.605 238.241 C 487.534 234.05 491 227.971 491 220 C 491 214.453 489.233 209.932 485.697 206.436 C 482.722 203.487 476.744 200.02 467.769 196.034 Z"/>
  <path id="E" style="fill: rgb(100, 30, 140);" d="M 67.843 258.424 C 61.419 258.063 54.899 257.822 48.329 257.822 C 41.762 257.822 35.242 258.063 28.817 258.424 C 17.181 259.04 8.048 268.63 8 280.286 L 8 310.235 C 8.048 321.89 17.181 331.481 28.817 332.097 C 35.242 332.458 41.762 332.7 48.329 332.7 C 54.899 332.7 61.419 332.458 67.843 332.097 C 79.479 331.481 88.614 321.89 88.66 310.235 L 88.66 308.545 L 79.244 308.545 L 79.244 310.235 C 79.204 316.835 74.045 322.269 67.458 322.653 C 61.129 323.039 54.754 323.279 48.329 323.279 C 41.907 323.279 35.531 323.039 29.207 322.653 C 22.616 322.269 17.457 316.835 17.417 310.235 L 17.417 280.286 C 17.457 273.686 22.616 268.251 29.207 267.87 C 35.531 267.482 41.907 267.241 48.329 267.241 C 54.754 267.241 61.129 267.482 67.458 267.87 C 74.045 268.251 79.204 273.686 79.244 280.286 L 79.244 290.43 L 40.361 290.43 L 40.361 300.091 L 88.66 300.091 L 88.66 280.286 C 88.614 268.63 79.479 259.04 67.843 258.424 Z M 152.44 258.545 C 147.248 258.111 141.938 257.822 136.648 257.822 C 131.358 257.822 126.047 258.111 120.856 258.545 C 109.61 259.586 100.982 268.987 100.907 280.286 L 100.907 331.975 L 110.324 331.975 L 110.324 280.286 C 110.365 273.701 115.482 268.267 122.051 267.832 C 126.852 267.498 131.721 267.241 136.648 267.241 C 141.572 267.241 146.448 267.482 151.248 267.832 C 157.816 268.27 162.928 273.704 162.971 280.286 L 162.971 331.975 L 172.391 331.975 L 172.391 280.286 C 172.315 268.988 163.689 259.588 152.44 258.545 Z M 244.189 258.424 C 237.762 258.063 231.244 257.822 224.675 257.822 C 218.105 257.822 211.584 258.063 205.163 258.424 C 193.526 259.04 184.391 268.63 184.342 280.286 L 184.342 310.235 C 184.391 321.89 193.526 331.481 205.163 332.097 C 211.584 332.458 218.105 332.7 224.675 332.7 C 231.244 332.7 237.762 332.458 244.189 332.097 C 255.824 331.481 264.956 321.89 265.005 310.235 L 265.005 308.545 L 255.585 308.545 L 255.585 310.235 C 255.546 316.835 250.388 322.269 243.802 322.653 C 237.473 323.039 231.097 323.279 224.675 323.279 C 218.25 323.279 211.875 323.039 205.547 322.653 C 198.961 322.269 193.801 316.835 193.762 310.235 L 193.762 280.286 C 193.801 273.686 198.961 268.251 205.547 267.87 C 211.875 267.482 218.25 267.241 224.675 267.241 C 231.097 267.241 237.473 267.482 243.802 267.87 C 250.388 268.251 255.546 273.686 255.585 280.286 L 255.585 290.43 L 216.703 290.43 L 216.703 300.091 L 265.005 300.091 L 265.005 280.286 C 264.956 268.63 255.824 259.04 244.189 258.424 Z M 278.282 280.279 L 278.282 331.97 L 287.701 331.97 L 287.701 280.279 C 287.701 273.676 293.12 267.962 299.665 267.962 L 318.855 267.962 L 318.855 258.538 L 299.337 258.538 C 289.077 258.545 278.282 267.444 278.282 280.279 Z M 385.466 258.424 C 379.042 258.063 372.519 257.822 365.952 257.822 C 359.385 257.822 352.859 258.063 346.438 258.424 C 334.802 259.04 325.669 268.63 325.621 280.286 L 325.621 310.235 C 325.669 321.89 334.802 331.481 346.438 332.097 C 352.859 332.458 359.385 332.7 365.952 332.7 C 372.519 332.7 379.042 332.458 385.466 332.097 C 397.1 331.481 406.234 321.89 406.281 310.235 L 406.281 290.43 L 357.982 290.43 L 357.982 300.091 L 396.864 300.091 L 396.864 310.235 C 396.824 316.835 391.666 322.269 385.078 322.653 C 378.751 323.039 372.373 323.279 365.952 323.279 C 359.527 323.279 353.151 323.039 346.825 322.653 C 340.238 322.269 335.08 316.835 335.039 310.235 L 335.039 280.286 C 335.08 273.686 340.238 268.251 346.825 267.87 C 353.151 267.482 359.527 267.241 365.952 267.241 C 372.373 267.241 378.751 267.482 385.078 267.87 C 391.666 268.251 396.824 273.686 396.864 280.286 L 396.864 281.976 L 406.281 281.976 L 406.281 280.286 C 406.234 268.63 397.1 259.04 385.466 258.424 Z M 491 258.545 L 479.205 258.545 L 447.207 301.009 C 444.357 304.779 442.821 309.376 442.831 314.1 L 442.831 331.975 L 452.246 331.975 L 452.246 314.1 C 452.243 311.419 453.117 308.814 454.736 306.677 L 491 258.545 Z M 419.648 258.545 L 407.348 258.545 L 440.9 298.531 L 446.715 290.807 L 419.648 258.545 Z"/>
</svg>